<?xml version="1.0" standalone="no"?>
<!DOCTYPE svg PUBLIC "-//W3C//DTD SVG 20010904//EN"
 "http://www.w3.org/TR/2001/REC-SVG-20010904/DTD/svg10.dtd">
<svg version="1.1" id="Layer_1" xmlns="http://www.w3.org/2000/svg" xmlns:xlink="http://www.w3.org/1999/xlink" x="0px" y="0px"
 width="292.651px" height="70px" viewBox="0 0 292.651 70"
 enable-background="new 0 0 292.651 70" xml:space="preserve">

<g transform="translate(0.000000,1080.000000) scale(0.100000,-0.100000)"
fill="#000000" stroke="none">
<path d="M0 5400 l0 -5400 9600 0 9600 0 0 5400 0 5400 -9600 0 -9600 0 0
-5400z m13785 4101 c451 -24 681 -40 1230 -86 160 -13 358 -29 440 -36 83 -6
166 -16 185 -23 36 -12 77 -61 86 -105 10 -50 18 -56 95 -64 108 -11 356 -46
373 -53 26 -10 29 -43 8 -77 -11 -18 -36 -58 -55 -91 -37 -60 -77 -171 -96
-264 -16 -76 -14 -223 3 -247 7 -11 16 -38 19 -60 3 -22 22 -107 41 -190 74
-315 87 -406 96 -710 5 -154 16 -392 25 -530 9 -137 20 -324 25 -415 8 -160 5
-1109 -5 -1300 -2 -52 -9 -216 -15 -365 -6 -148 -12 -310 -15 -360 -2 -49 -7
-166 -10 -260 -4 -93 -11 -246 -16 -340 -5 -93 -12 -318 -14 -500 -10 -639
-32 -936 -106 -1450 -84 -584 -140 -773 -247 -832 l-37 -21 -1630 8 c-1516 7
-1648 9 -1890 29 -479 38 -679 42 -2220 48 -1478 5 -1857 1 -2505 -27 -118 -5
-273 -12 -345 -15 -643 -27 -863 -37 -1070 -50 -713 -43 -1839 -47 -2280 -6
-577 53 -683 71 -738 129 -56 58 -59 110 -22 368 14 97 24 178 22 180 -2 3
-53 9 -113 15 -223 21 -321 66 -375 171 -39 76 -42 162 -28 708 15 560 19
1586 6 1850 -4 91 -12 246 -17 345 -6 99 -15 266 -20 370 -28 524 -50 861 -86
1280 -49 589 -55 695 -61 1110 -6 455 -4 492 47 746 49 243 99 378 175 469 20
23 34 49 30 57 -3 7 -8 20 -11 28 -11 26 56 44 217 59 83 8 153 17 156 20 3 2
13 46 23 98 23 118 34 145 72 185 23 23 47 35 87 44 82 17 443 5 761 -25 509
-48 1118 -94 1615 -122 224 -12 388 -15 645 -11 853 14 2501 118 3605 227 186
18 476 43 640 55 285 20 989 41 1494 44 124 1 227 4 230 7 9 10 1355 -4 1576
-15z"/>
<path d="M12700 9447 c-3 -2 -320 -7 -705 -10 -969 -9 -1375 -26 -1975 -82
-670 -64 -802 -75 -1050 -94 -609 -47 -1494 -103 -1845 -117 -172 -7 -274 -21
-165 -23 30 -1 150 -8 265 -16 212 -15 617 -39 820 -50 61 -3 187 -10 280 -15
220 -13 939 -13 1315 0 659 22 1476 58 1935 85 286 17 740 32 1225 40 534 9
1398 37 1565 50 176 14 845 17 1041 5 276 -17 269 -18 243 28 -28 50 1 46
-839 112 -135 11 -274 22 -310 25 -156 12 -709 44 -855 49 -238 9 -940 18
-945 13z"/>
<path d="M3226 9267 c-21 -7 -47 -23 -57 -37 -19 -25 -49 -148 -49 -197 l0
-26 173 7 c94 3 298 11 452 16 278 10 616 26 750 35 421 30 757 57 790 64 l40
9 -40 1 c-22 1 -62 4 -90 6 -27 3 -207 17 -400 31 -192 13 -469 36 -615 50
-597 55 -867 67 -954 41z"/>
<path d="M14600 9155 c-14 -4 -126 -9 -905 -40 -198 -8 -616 -19 -930 -25
-552 -10 -1073 -26 -1165 -35 -74 -8 -407 -24 -905 -45 -258 -11 -508 -23
-555 -26 -83 -7 -78 -8 170 -30 360 -32 504 -49 835 -99 160 -24 340 -49 400
-56 146 -15 1138 -16 1490 -1 166 7 719 12 1438 12 642 0 1167 1 1168 3 6 16
25 304 21 309 -15 15 -267 28 -647 32 -220 3 -407 3 -415 1z"/>
<path d="M15736 9079 c-10 -85 -22 -264 -18 -269 2 -3 47 -8 100 -11 95 -6 97
-7 127 -42 l31 -36 24 82 c13 45 45 124 72 176 26 52 46 96 45 97 -4 4 -212
31 -304 40 l-71 6 -6 -43z"/>
<path d="M5850 9090 c-322 -20 -1187 -83 -1340 -97 l-75 -7 50 -7 c123 -17
1172 -31 1870 -25 1096 9 1598 18 1615 27 10 5 -5 9 -40 9 -30 0 -86 3 -125 5
-38 3 -173 12 -300 20 -126 8 -331 22 -455 30 -618 41 -1021 56 -1200 45z"/>
<path d="M8930 8934 c-785 -34 -1860 -53 -3110 -55 -490 -1 -734 -5 -665 -10
360 -26 647 -31 2150 -39 891 -5 2070 -11 2620 -14 884 -5 989 -4 903 9 -134
19 -455 51 -758 75 -222 17 -339 24 -765 43 -44 2 -213 -2 -375 -9z"/>
<path d="M3107 8863 c-3 -4 -8 -117 -12 -251 -4 -134 -8 -258 -10 -275 -10
-120 -16 -675 -18 -1637 -2 -1009 0 -1132 16 -1290 24 -237 61 -542 97 -795
36 -260 64 -508 87 -775 21 -251 24 -959 5 -1170 -7 -74 -23 -247 -36 -385
-14 -137 -27 -289 -30 -336 l-6 -86 158 -7 c86 -4 193 -11 237 -17 44 -5 271
-12 505 -15 462 -7 941 4 1535 36 359 19 468 24 740 35 72 3 416 10 765 15
726 11 1083 18 1255 25 300 13 1198 25 2300 31 1049 6 1234 5 1470 -10 149 -9
293 -18 320 -21 28 -2 88 -7 135 -10 271 -17 829 -63 1175 -95 515 -48 1069
-74 1450 -68 205 3 267 7 295 20 67 29 64 -14 57 666 -5 656 -1 781 38 1207
42 451 61 598 116 930 78 465 72 373 76 1195 3 503 1 787 -7 875 -12 140 -48
402 -80 580 -56 318 -88 636 -97 967 l-6 236 -29 6 c-15 3 -169 21 -341 40
-430 48 -635 61 -1247 76 -217 5 -456 12 -530 15 -74 3 -205 7 -290 10 -223 8
-525 24 -670 36 -167 13 -529 48 -560 54 -58 11 -393 36 -615 45 -244 11
-1618 24 -4260 40 -808 5 -1488 11 -1510 14 -22 2 -125 7 -230 11 -104 3 -293
13 -420 20 -313 20 -788 44 -1030 53 -289 12 -792 15 -798 5z m4043 -3190 c0
-313 5 -586 10 -608 18 -77 82 -103 175 -70 21 8 40 13 42 12 2 -2 53 -319 53
-330 0 -3 -26 -15 -57 -27 -137 -51 -323 -65 -431 -31 -75 23 -113 50 -152
106 -60 87 -60 92 -60 837 l0 678 210 0 210 0 0 -567z m2160 387 l0 -180 -210
0 -210 0 0 180 0 180 210 0 210 0 0 -180z m-4476 82 c341 -170 421 -613 159
-882 -35 -35 -62 -69 -59 -75 2 -5 80 -135 174 -288 l171 -277 -247 2 -246 3
-146 237 -145 237 -82 1 -83 0 0 -240 0 -240 -215 0 -215 0 0 786 0 785 423
-3 424 -3 87 -43z m5196 -172 l0 -179 113 -3 112 -3 3 -157 3 -158 -116 0
-115 0 0 -220 0 -221 25 -24 c30 -31 86 -33 163 -6 28 10 52 17 52 15 0 -2 16
-72 35 -155 19 -84 35 -158 35 -165 0 -16 -89 -49 -198 -75 -95 -23 -245 -27
-313 -9 -60 16 -132 63 -162 108 -57 81 -60 102 -64 437 l-4 310 -70 3 -70 3
3 157 3 157 69 5 68 5 0 178 0 177 214 0 214 0 0 -180z m-3878 -185 c95 -25
208 -90 278 -159 126 -125 189 -323 164 -510 l-7 -46 -409 0 -410 0 7 -27 c13
-55 40 -88 95 -116 46 -24 65 -28 115 -25 74 4 152 41 180 84 l21 31 174 -50
c96 -27 177 -51 178 -52 9 -9 -76 -120 -122 -161 -67 -59 -192 -120 -286 -140
-114 -24 -311 -15 -408 19 -103 36 -174 81 -244 156 -169 180 -204 452 -90
695 43 93 143 194 240 244 90 46 126 59 207 72 80 12 239 5 317 -15z m2153 0
c171 -44 312 -156 383 -305 22 -47 45 -109 51 -138 12 -57 15 -230 5 -256 -5
-14 -51 -16 -410 -16 -401 0 -404 0 -404 -20 0 -31 25 -74 60 -103 57 -48 149
-60 231 -29 55 21 80 39 102 73 l17 26 173 -49 c94 -28 174 -52 176 -54 19
-19 -123 -175 -205 -224 -99 -60 -182 -82 -330 -87 -161 -7 -247 10 -367 70
-143 71 -250 205 -291 363 -20 78 -20 229 0 314 69 294 319 470 649 455 55 -2
127 -11 160 -20z m4380 -170 l0 -190 -80 -7 c-117 -9 -179 -26 -233 -61 l-47
-32 -3 -352 -2 -353 -210 0 -210 0 0 585 0 585 190 0 190 0 1 -107 0 -108 22
30 c104 139 217 208 337 202 l45 -2 0 -190z m863 169 c137 -34 251 -114 305
-212 46 -84 57 -150 57 -332 0 -91 5 -181 10 -201 10 -36 19 -42 83 -63 15 -5
17 -23 17 -180 l0 -175 -37 -8 c-21 -4 -92 -8 -158 -8 -106 0 -125 3 -163 23
-48 25 -77 66 -93 128 l-11 42 -36 -41 c-52 -57 -144 -114 -225 -139 -54 -16
-87 -20 -161 -16 -84 3 -102 8 -169 41 -116 58 -185 146 -207 270 -38 202 113
393 348 443 115 24 280 15 365 -21 14 -6 17 -1 17 31 0 48 -26 101 -62 128
-22 15 -48 21 -116 24 -111 5 -188 -13 -301 -74 -46 -24 -85 -43 -85 -42 -29
51 -114 253 -110 259 9 16 137 77 209 100 156 50 375 60 523 23z m1236 11
c155 -27 373 -105 359 -128 -5 -7 -41 -68 -82 -135 -42 -71 -78 -121 -85 -118
-82 38 -199 80 -253 91 -86 19 -125 19 -168 1 -29 -13 -35 -20 -35 -45 0 -43
26 -57 189 -102 266 -73 378 -131 436 -223 28 -47 30 -55 30 -150 0 -84 -4
-110 -24 -153 -26 -59 -106 -140 -170 -173 -154 -78 -414 -80 -700 -4 -96 25
-211 71 -211 84 0 7 147 270 156 279 2 2 33 -10 69 -27 213 -105 464 -131 473
-51 5 40 -32 62 -165 99 -153 42 -278 86 -328 116 -118 69 -166 169 -144 304
41 255 312 394 653 335z m-5474 -590 l0 -585 -210 0 -210 0 0 585 0 585 210 0
210 0 0 -585z m1570 205 c6 -420 5 -416 77 -446 61 -26 158 2 213 61 l25 27 5
366 5 367 210 0 210 0 5 -383 5 -384 24 -19 c13 -10 34 -19 47 -19 l24 0 0
-179 c0 -210 16 -189 -156 -198 -89 -5 -121 -2 -162 11 -60 20 -116 77 -127
127 -4 19 -10 38 -12 42 -3 5 -31 -17 -63 -48 -103 -97 -236 -141 -408 -133
-120 5 -183 30 -245 97 -52 55 -84 134 -97 235 -11 82 -13 839 -3 850 4 3 99
5 212 4 l206 -3 5 -375z"/>
<path d="M4340 5812 c-6 -2 -10 -68 -10 -168 l0 -164 143 0 c159 0 180 6 211
60 27 45 29 160 4 206 -31 56 -53 64 -203 66 -74 2 -140 2 -145 0z"/>
<path d="M5885 5496 c-50 -19 -100 -74 -113 -126 l-10 -40 190 0 191 0 -7 32
c-8 42 -48 99 -84 120 -41 25 -119 31 -167 14z"/>
<path d="M8050 5498 c-43 -12 -85 -50 -111 -100 -36 -70 -41 -68 172 -68 l190
0 -7 23 c-25 83 -66 128 -132 147 -44 12 -65 12 -112 -2z"/>
<path d="M13233 5120 c-104 -47 -107 -164 -6 -206 18 -8 45 -14 61 -14 54 0
135 31 169 65 32 32 34 38 31 91 l-3 58 -50 13 c-72 18 -153 16 -202 -7z"/>
<path d="M2857 8846 c-38 -7 -73 -19 -78 -27 -14 -20 -4 -273 21 -509 22 -206
28 -250 61 -425 20 -103 21 -162 29 -920 6 -593 12 -853 23 -970 9 -88 19
-205 22 -260 13 -182 7 -645 -12 -935 -21 -329 -23 -826 -5 -1000 22 -203 42
-359 82 -620 22 -140 53 -401 70 -580 52 -553 60 -599 78 -454 49 395 71 772
67 1174 -4 437 -24 669 -125 1425 -104 781 -104 792 -96 2120 3 589 9 1120 12
1180 3 61 6 268 7 460 l2 350 -45 2 c-25 1 -76 -4 -113 -11z"/>
<path d="M2647 8720 c-56 -114 -105 -304 -143 -549 -30 -197 -12 -935 35
-1445 24 -258 44 -524 65 -866 9 -135 18 -283 21 -330 11 -180 45 -804 52
-975 11 -243 10 -1201 -1 -1907 -8 -530 -8 -580 8 -621 9 -24 27 -53 39 -65
51 -48 203 -92 318 -92 69 0 68 -2 39 108 -28 105 -45 234 -80 594 -33 348
-44 437 -96 761 -80 505 -96 861 -58 1352 27 360 26 981 -4 1327 -20 234 -22
319 -22 975 0 678 -1 725 -20 829 -45 245 -65 398 -90 694 -7 74 -15 169 -19
210 l-7 75 -37 -75z"/>
<path d="M13445 8728 c-423 -4 -781 -10 -795 -12 -14 -2 -59 -5 -100 -6 -124
-2 -51 -16 150 -29 302 -18 361 -21 915 -36 1066 -30 1297 -44 1863 -111 116
-14 145 -15 152 -5 4 7 8 58 9 112 l2 99 -713 -2 c-392 -1 -1059 -5 -1483 -10z"/>
<path d="M15717 8723 c-4 -3 -7 -52 -7 -109 0 -88 2 -103 18 -109 9 -4 64 -9
121 -12 l104 -6 -7 34 c-3 19 -18 71 -32 116 -20 62 -31 83 -48 87 -29 8 -141
7 -149 -1z"/>
<path d="M15704 8364 c3 -38 8 -127 11 -199 15 -326 40 -565 99 -925 83 -504
90 -618 91 -1420 0 -733 2 -699 -80 -1230 -54 -348 -77 -530 -109 -855 -46
-467 -48 -496 -44 -950 6 -811 4 -967 -11 -1002 -26 -63 -120 -88 -371 -99
-125 -6 -628 8 -775 21 -27 2 -97 7 -155 10 -157 9 -313 21 -890 70 -514 44
-870 71 -1260 97 -211 14 -886 16 -2285 8 -793 -4 -922 -7 -1590 -29 -170 -6
-591 -15 -935 -21 -973 -15 -1142 -19 -1650 -45 -686 -34 -696 -35 -1135 -44
-429 -10 -819 -1 -1100 24 -183 16 -285 19 -285 8 0 -20 67 -106 97 -124 33
-21 43 -22 172 -16 75 4 186 16 246 27 140 26 551 36 2250 50 1237 11 1657 19
2360 45 671 26 1564 30 2130 11 629 -21 1272 -44 1400 -51 55 -2 161 -7 235
-10 911 -37 1123 -57 2035 -185 936 -132 1106 -153 1335 -170 205 -14 295 -13
309 4 33 40 121 607 156 1011 21 253 33 554 46 1200 13 646 7 1134 -18 1450
-14 180 -16 418 -18 1680 -1 809 -5 1522 -9 1586 l-8 116 -92 7 c-50 4 -106 9
-125 13 l-33 6 6 -69z"/>
<path d="M16026 8153 c5 -49 9 -713 9 -1478 1 -1285 2 -1406 20 -1600 16 -179
19 -304 19 -850 1 -568 -8 -1166 -19 -1340 -2 -33 -7 -131 -10 -217 -4 -87 -8
-168 -10 -180 -2 -13 -6 -68 -10 -123 -3 -55 -8 -113 -10 -130 -2 -16 -9 -75
-15 -130 -6 -55 -31 -232 -56 -394 -25 -161 -43 -295 -41 -297 10 -10 81 388
122 676 56 404 71 617 80 1135 5 284 15 550 30 815 5 84 28 653 44 1105 9 232
7 1590 -2 1655 -9 63 -34 507 -43 765 -7 212 -16 289 -64 518 -37 175 -58 209
-44 70z"/>
<path d="M8920 1709 c-273 -8 -484 -14 -890 -29 -425 -16 -1356 -29 -2715 -40
-1227 -10 -1394 -15 -1577 -45 -108 -19 -348 -31 -401 -21 -25 5 -56 25 -96
61 l-59 55 -18 -113 c-10 -61 -18 -147 -18 -190 -1 -71 1 -81 23 -98 49 -40
163 -59 586 -100 475 -45 1578 -47 2355 -3 479 26 576 31 790 39 80 3 357 15
615 27 414 18 644 21 1929 25 1676 5 2231 -4 2801 -44 l380 -27 1325 -1 c729
0 1330 -3 1336 -7 6 -4 118 -8 249 -9 220 -1 240 1 264 18 24 18 84 113 76
121 -2 2 -18 -7 -35 -20 -31 -22 -39 -23 -203 -22 -247 1 -401 19 -1532 178
-728 103 -997 132 -1395 151 -63 3 -149 7 -190 10 -90 6 -232 12 -560 25 -135
5 -299 12 -365 15 -66 2 -192 7 -280 10 -236 8 -421 14 -595 20 -774 27 -1184
30 -1800 14z"/>
</g>
</svg>
